<svg width="50" height="50" viewBox="0 0 50 50" fill="none" xmlns="http://www.w3.org/2000/svg">
<circle cx="25" cy="25" r="25" fill="#FFDD00"/>
<path fill-rule="evenodd" clip-rule="evenodd" d="M24.5002 31.0324C24.47 32.4954 23.2649 33.6597 21.8018 33.6397C20.3387 33.6196 19.166 32.4227 19.1758 30.9595C19.1857 29.4963 20.3745 28.3153 21.8377 28.3149C22.5512 28.3222 23.2325 28.6126 23.7318 29.1222C24.2311 29.6319 24.5075 30.319 24.5002 31.0324V31.0324Z" stroke="#010201" stroke-linecap="round" stroke-linejoin="round"/>
<path fill-rule="evenodd" clip-rule="evenodd" d="M37.1809 31.0324C37.1507 32.4954 35.9456 33.6597 34.4825 33.6397C33.0194 33.6196 31.8466 32.4227 31.8565 30.9595C31.8664 29.4963 33.0551 28.3153 34.5184 28.3149C35.2318 28.3222 35.9132 28.6126 36.4125 29.1222C36.9118 29.6319 37.1882 30.319 37.1809 31.0324V31.0324Z" stroke="#010201" stroke-linecap="round" stroke-linejoin="round"/>
<path d="M31.5425 31.5325C31.8186 31.5325 32.0425 31.3086 32.0425 31.0325C32.0425 30.7564 31.8186 30.5325 31.5425 30.5325V31.5325ZM24.5 30.5325C24.2239 30.5325 24 30.7564 24 31.0325C24 31.3086 24.2239 31.5325 24.5 31.5325V30.5325ZM31.0475 31.0325C31.0475 31.3086 31.2714 31.5325 31.5475 31.5325C31.8236 31.5325 32.0475 31.3086 32.0475 31.0325H31.0475ZM32.0475 24.4487C32.0475 24.1726 31.8236 23.9487 31.5475 23.9487C31.2714 23.9487 31.0475 24.1726 31.0475 24.4487H32.0475ZM31.5475 30.5325C31.2714 30.5325 31.0475 30.7564 31.0475 31.0325C31.0475 31.3086 31.2714 31.5325 31.5475 31.5325V30.5325ZM31.8613 31.5325C32.1374 31.5325 32.3613 31.3086 32.3613 31.0325C32.3613 30.7564 32.1374 30.5325 31.8613 30.5325V31.5325ZM37.1757 30.5326C36.8996 30.5384 36.6805 30.767 36.6864 31.0431C36.6922 31.3192 36.9207 31.5382 37.1968 31.5324L37.1757 30.5326ZM40 28.1062L40.4999 28.0972C40.4994 28.0708 40.4969 28.0445 40.4922 28.0184L40 28.1062ZM39.8397 24.3609C39.7912 24.0891 39.5315 23.908 39.2597 23.9565C38.9878 24.005 38.8068 24.2647 38.8553 24.5366L39.8397 24.3609ZM31.5425 18.0963C31.2664 18.0963 31.0425 18.3201 31.0425 18.5963C31.0425 18.8724 31.2664 19.0963 31.5425 19.0963V18.0963ZM36.0062 18.5963V19.0963L36.0094 19.0962L36.0062 18.5963ZM38.0432 19.4548L37.6831 19.8017L37.6831 19.8017L38.0432 19.4548ZM38.825 21.5225L38.3255 21.5006C38.3239 21.5374 38.3263 21.5742 38.3328 21.6104L38.825 21.5225ZM38.8553 24.5366C38.9038 24.8085 39.1635 24.9895 39.4354 24.941C39.7072 24.8924 39.8883 24.6327 39.8397 24.3609L38.8553 24.5366ZM32.0425 18.5963C32.0425 18.3201 31.8186 18.0963 31.5425 18.0963C31.2664 18.0963 31.0425 18.3201 31.0425 18.5963H32.0425ZM31.0425 24.4488C31.0425 24.7249 31.2664 24.9488 31.5425 24.9488C31.8186 24.9488 32.0425 24.7249 32.0425 24.4488H31.0425ZM31.0425 18.5962C31.0425 18.8724 31.2664 19.0962 31.5425 19.0962C31.8186 19.0962 32.0425 18.8724 32.0425 18.5962H31.0425ZM31.5425 17.5962L31.0425 17.593V17.5962H31.5425ZM30.2125 16.25L30.2153 15.75H30.2125V16.25ZM18.2313 16.25L18.2313 15.75L18.2289 15.75L18.2313 16.25ZM17.2873 16.6462L16.9321 16.2943L16.9321 16.2943L17.2873 16.6462ZM16.9 17.5938L17.4 17.5938L17.4 17.5914L16.9 17.5938ZM16.9 29.6875L17.4 29.6898V29.6875H16.9ZM17.2873 30.6351L16.9321 30.987L16.9321 30.987L17.2873 30.6351ZM18.2313 31.0312L18.2289 31.5312H18.2313V31.0312ZM19.17 31.5312C19.4461 31.5312 19.67 31.3074 19.67 31.0312C19.67 30.7551 19.4461 30.5312 19.17 30.5312V31.5312ZM31.545 23.9475C31.2689 23.9475 31.045 24.1714 31.045 24.4475C31.045 24.7236 31.2689 24.9475 31.545 24.9475V23.9475ZM39.35 24.9475C39.6261 24.9475 39.85 24.7236 39.85 24.4475C39.85 24.1714 39.6261 23.9475 39.35 23.9475V24.9475ZM10 18.25C9.72386 18.25 9.5 18.4739 9.5 18.75C9.5 19.0261 9.72386 19.25 10 19.25V18.25ZM13.9125 19.25C14.1886 19.25 14.4125 19.0261 14.4125 18.75C14.4125 18.4739 14.1886 18.25 13.9125 18.25V19.25ZM11.25 22C10.9739 22 10.75 22.2239 10.75 22.5C10.75 22.7761 10.9739 23 11.25 23V22ZM13.75 23C14.0261 23 14.25 22.7761 14.25 22.5C14.25 22.2239 14.0261 22 13.75 22V23ZM12.0125 25.75C11.7364 25.75 11.5125 25.9739 11.5125 26.25C11.5125 26.5261 11.7364 26.75 12.0125 26.75V25.75ZM13.75 26.75C14.0261 26.75 14.25 26.5261 14.25 26.25C14.25 25.9739 14.0261 25.75 13.75 25.75V26.75ZM31.5425 30.5325H24.5V31.5325H31.5425V30.5325ZM32.0475 31.0325V24.4487H31.0475V31.0325H32.0475ZM31.5475 31.5325H31.8613V30.5325H31.5475V31.5325ZM37.1968 31.5324C39.0563 31.4931 40.5335 29.9568 40.4999 28.0972L39.5001 28.1153C39.5237 29.4239 38.4842 30.5049 37.1757 30.5326L37.1968 31.5324ZM40.4922 28.0184L39.8397 24.3609L38.8553 24.5366L39.5078 28.1941L40.4922 28.0184ZM31.5425 19.0963H36.0062V18.0963H31.5425V19.0963ZM36.0094 19.0962C36.6404 19.0923 37.2454 19.3473 37.6831 19.8017L38.4033 19.108C37.7756 18.4562 36.908 18.0906 36.0031 18.0963L36.0094 19.0962ZM37.6831 19.8017C38.1209 20.2562 38.3531 20.8703 38.3255 21.5006L39.3245 21.5444C39.3641 20.6403 39.0311 19.7597 38.4033 19.108L37.6831 19.8017ZM38.3328 21.6104L38.8553 24.5366L39.8397 24.3609L39.3172 21.4346L38.3328 21.6104ZM31.0425 18.5963V24.4488H32.0425V18.5963H31.0425ZM32.0425 18.5962V17.5962H31.0425V18.5962H32.0425ZM32.0425 17.5995C32.0457 17.1119 31.8549 16.643 31.5122 16.2961L30.8008 16.9989C30.957 17.157 31.044 17.3707 31.0425 17.593L32.0425 17.5995ZM31.5122 16.2961C31.1695 15.9492 30.7029 15.7527 30.2153 15.75L30.2097 16.75C30.432 16.7512 30.6446 16.8408 30.8008 16.9989L31.5122 16.2961ZM30.2125 15.75H18.2313V16.75H30.2125V15.75ZM18.2289 15.75C17.7416 15.7523 17.2751 15.9481 16.9321 16.2943L17.6425 16.9981C17.7989 16.8403 18.0115 16.751 18.2336 16.75L18.2289 15.75ZM16.9321 16.2943C16.5891 16.6405 16.3977 17.1088 16.4 17.5961L17.4 17.5914C17.399 17.3693 17.4862 17.1559 17.6425 16.9981L16.9321 16.2943ZM16.4 17.5938V29.6875H17.4V17.5938H16.4ZM16.4 29.6852C16.3977 30.1725 16.5891 30.6408 16.9321 30.987L17.6425 30.2832C17.4862 30.1254 17.399 29.912 17.4 29.6898L16.4 29.6852ZM16.9321 30.987C17.2751 31.3332 17.7416 31.529 18.2289 31.5312L18.2336 30.5313C18.0115 30.5302 17.7989 30.441 17.6425 30.2832L16.9321 30.987ZM18.2313 31.5312H19.17V30.5312H18.2313V31.5312ZM31.545 24.9475H39.35V23.9475H31.545V24.9475ZM10 19.25H13.9125V18.25H10V19.25ZM11.25 23H13.75V22H11.25V23ZM12.0125 26.75H13.75V25.75H12.0125V26.75Z" fill="#010201"/>
</svg>
