<svg width="32" height="30" viewBox="0 0 32 30" fill="none" xmlns="http://www.w3.org/2000/svg">
<path fill-rule="evenodd" clip-rule="evenodd" d="M15.5002 21.0325C15.47 22.4954 14.2649 23.6598 12.8018 23.6398C11.3387 23.6197 10.166 22.4228 10.1758 20.9596C10.1857 19.4964 11.3745 18.3153 12.8377 18.315C13.5512 18.3223 14.2325 18.6127 14.7318 19.1223C15.2311 19.632 15.5075 20.3191 15.5002 21.0325V21.0325Z" stroke="#010201" stroke-linecap="round" stroke-linejoin="round"/>
<path fill-rule="evenodd" clip-rule="evenodd" d="M28.1814 21.0325C28.1511 22.4954 26.946 23.6598 25.483 23.6398C24.0199 23.6197 22.8471 22.4228 22.857 20.9596C22.8669 19.4964 24.0556 18.3153 25.5189 18.315C26.2323 18.3223 26.9136 18.6127 27.413 19.1223C27.9123 19.632 28.1887 20.3191 28.1814 21.0325V21.0325Z" stroke="#010201" stroke-linecap="round" stroke-linejoin="round"/>
<path d="M22.5425 21.5326C22.8186 21.5326 23.0425 21.3087 23.0425 21.0326C23.0425 20.7564 22.8186 20.5326 22.5425 20.5326V21.5326ZM15.5 20.5326C15.2239 20.5326 15 20.7564 15 21.0326C15 21.3087 15.2239 21.5326 15.5 21.5326V20.5326ZM22.0475 21.0326C22.0475 21.3087 22.2714 21.5326 22.5475 21.5326C22.8236 21.5326 23.0475 21.3087 23.0475 21.0326H22.0475ZM23.0475 14.4488C23.0475 14.1727 22.8236 13.9488 22.5475 13.9488C22.2714 13.9488 22.0475 14.1727 22.0475 14.4488H23.0475ZM22.5475 20.5326C22.2714 20.5326 22.0475 20.7564 22.0475 21.0326C22.0475 21.3087 22.2714 21.5326 22.5475 21.5326V20.5326ZM22.8613 21.5326C23.1374 21.5326 23.3613 21.3087 23.3613 21.0326C23.3613 20.7564 23.1374 20.5326 22.8613 20.5326V21.5326ZM28.1757 20.5327C27.8996 20.5385 27.6805 20.7671 27.6864 21.0431C27.6922 21.3192 27.9207 21.5383 28.1968 21.5324L28.1757 20.5327ZM31 18.1063L31.4999 18.0973C31.4994 18.0709 31.4969 18.0445 31.4922 18.0185L31 18.1063ZM30.8397 14.361C30.7912 14.0891 30.5315 13.9081 30.2597 13.9566C29.9878 14.0051 29.8068 14.2648 29.8553 14.5366L30.8397 14.361ZM22.5425 8.09631C22.2664 8.09631 22.0425 8.32017 22.0425 8.59631C22.0425 8.87245 22.2664 9.09631 22.5425 9.09631V8.09631ZM27.0062 8.59631V9.09632L27.0094 9.0963L27.0062 8.59631ZM29.0432 9.45489L28.6831 9.80177L28.6831 9.80177L29.0432 9.45489ZM29.825 11.5226L29.3255 11.5007C29.3239 11.5374 29.3263 11.5742 29.3328 11.6104L29.825 11.5226ZM29.8553 14.5367C29.9038 14.8085 30.1635 14.9896 30.4354 14.941C30.7072 14.8925 30.8883 14.6328 30.8397 14.3609L29.8553 14.5367ZM23.0425 8.59631C23.0425 8.32017 22.8186 8.09631 22.5425 8.09631C22.2664 8.09631 22.0425 8.32017 22.0425 8.59631H23.0425ZM22.0425 14.4488C22.0425 14.725 22.2664 14.9488 22.5425 14.9488C22.8186 14.9488 23.0425 14.725 23.0425 14.4488H22.0425ZM22.0425 8.59631C22.0425 8.87245 22.2664 9.09631 22.5425 9.09631C22.8186 9.09631 23.0425 8.87245 23.0425 8.59631H22.0425ZM22.5425 7.59631L22.0425 7.59303V7.59631H22.5425ZM21.2125 6.25006L21.2153 5.75006H21.2125V6.25006ZM9.23125 6.25006L9.23125 5.75006L9.22892 5.75007L9.23125 6.25006ZM8.28732 6.64622L7.93212 6.29432L7.93212 6.29432L8.28732 6.64622ZM7.9 7.59381L8.40001 7.59381L8.39999 7.59147L7.9 7.59381ZM7.9 19.6876L8.4 19.6899V19.6876H7.9ZM8.28732 20.6352L7.93212 20.987L7.93212 20.987L8.28732 20.6352ZM9.23125 21.0313L9.22892 21.5313H9.23125V21.0313ZM10.17 21.5313C10.4461 21.5313 10.67 21.3075 10.67 21.0313C10.67 20.7552 10.4461 20.5313 10.17 20.5313V21.5313ZM22.545 13.9476C22.2689 13.9476 22.045 14.1714 22.045 14.4476C22.045 14.7237 22.2689 14.9476 22.545 14.9476V13.9476ZM30.35 14.9476C30.6261 14.9476 30.85 14.7237 30.85 14.4476C30.85 14.1714 30.6261 13.9476 30.35 13.9476V14.9476ZM1 8.25006C0.723858 8.25006 0.5 8.47392 0.5 8.75006C0.5 9.0262 0.723858 9.25006 1 9.25006V8.25006ZM4.9125 9.25006C5.18864 9.25006 5.4125 9.0262 5.4125 8.75006C5.4125 8.47392 5.18864 8.25006 4.9125 8.25006V9.25006ZM2.25 12.0001C1.97386 12.0001 1.75 12.2239 1.75 12.5001C1.75 12.7762 1.97386 13.0001 2.25 13.0001V12.0001ZM4.75 13.0001C5.02614 13.0001 5.25 12.7762 5.25 12.5001C5.25 12.2239 5.02614 12.0001 4.75 12.0001V13.0001ZM3.0125 15.7501C2.73636 15.7501 2.5125 15.9739 2.5125 16.2501C2.5125 16.5262 2.73636 16.7501 3.0125 16.7501V15.7501ZM4.75 16.7501C5.02614 16.7501 5.25 16.5262 5.25 16.2501C5.25 15.9739 5.02614 15.7501 4.75 15.7501V16.7501ZM22.5425 20.5326H15.5V21.5326H22.5425V20.5326ZM23.0475 21.0326V14.4488H22.0475V21.0326H23.0475ZM22.5475 21.5326H22.8613V20.5326H22.5475V21.5326ZM28.1968 21.5324C30.0563 21.4931 31.5335 19.9569 31.4999 18.0973L30.5001 18.1153C30.5237 19.4239 29.4842 20.505 28.1757 20.5327L28.1968 21.5324ZM31.4922 18.0185L30.8397 14.361L29.8553 14.5366L30.5078 18.1941L31.4922 18.0185ZM22.5425 9.09631H27.0062V8.09631H22.5425V9.09631ZM27.0094 9.0963C27.6404 9.09232 28.2454 9.34733 28.6831 9.80177L29.4033 9.10802C28.7756 8.45631 27.908 8.09062 27.0031 8.09632L27.0094 9.0963ZM28.6831 9.80177C29.1209 10.2562 29.3531 10.8703 29.3255 11.5007L30.3245 11.5444C30.3641 10.6404 30.0311 9.75972 29.4033 9.10802L28.6831 9.80177ZM29.3328 11.6104L29.8553 14.5367L30.8397 14.3609L30.3172 11.4347L29.3328 11.6104ZM22.0425 8.59631V14.4488H23.0425V8.59631H22.0425ZM23.0425 8.59631V7.59631H22.0425V8.59631H23.0425ZM23.0425 7.59959C23.0457 7.11196 22.8549 6.64305 22.5122 6.29614L21.8008 6.99894C21.957 7.15706 22.044 7.37078 22.0425 7.59303L23.0425 7.59959ZM22.5122 6.29614C22.1695 5.94924 21.7029 5.75279 21.2153 5.75007L21.2097 6.75005C21.432 6.75129 21.6446 6.84083 21.8008 6.99894L22.5122 6.29614ZM21.2125 5.75006H9.23125V6.75006H21.2125V5.75006ZM9.22892 5.75007C8.74158 5.75234 8.27511 5.94811 7.93212 6.29432L8.64252 6.99812C8.79885 6.84032 9.01146 6.75109 9.23358 6.75006L9.22892 5.75007ZM7.93212 6.29432C7.58913 6.64053 7.39772 7.10882 7.40001 7.59615L8.39999 7.59147C8.39895 7.36935 8.48619 7.15591 8.64252 6.99812L7.93212 6.29432ZM7.4 7.59381V19.6876H8.4V7.59381H7.4ZM7.40001 19.6852C7.39772 20.1726 7.58913 20.6408 7.93212 20.987L8.64252 20.2833C8.48619 20.1255 8.39895 19.912 8.39999 19.6899L7.40001 19.6852ZM7.93212 20.987C8.27511 21.3333 8.74158 21.529 9.22892 21.5313L9.23358 20.5313C9.01146 20.5303 8.79885 20.441 8.64252 20.2833L7.93212 20.987ZM9.23125 21.5313H10.17V20.5313H9.23125V21.5313ZM22.545 14.9476H30.35V13.9476H22.545V14.9476ZM1 9.25006H4.9125V8.25006H1V9.25006ZM2.25 13.0001H4.75V12.0001H2.25V13.0001ZM3.0125 16.7501H4.75V15.7501H3.0125V16.7501Z" fill="#010201"/>
</svg>
