<svg width="50" height="50" viewBox="0 0 50 50" fill="none" xmlns="http://www.w3.org/2000/svg">
<circle cx="25" cy="25" r="25" fill="#FFDD00"/>
<path fill-rule="evenodd" clip-rule="evenodd" d="M32 16.2502H18C17.5428 16.2432 17.1016 16.4181 16.7734 16.7365C16.4452 17.0548 16.2569 17.4905 16.25 17.9477V28.1252C16.2569 28.5824 16.4452 29.0181 16.7734 29.3364C17.1016 29.6548 17.5428 29.8297 18 29.8227H22.8375C23.1101 29.8213 23.3794 29.882 23.625 30.0002L30.6888 33.7502L30.625 28.1252H32.4125C33.1382 28.1364 33.7363 27.5584 33.75 26.8327V17.9477C33.7431 17.4905 33.5548 17.0548 33.2266 16.7365C32.8984 16.4181 32.4572 16.2432 32 16.2502Z" stroke="#010201" stroke-linecap="round" stroke-linejoin="round"/>
<path d="M20 20.7502C19.7239 20.7502 19.5 20.9741 19.5 21.2502C19.5 21.5264 19.7239 21.7502 20 21.7502V20.7502ZM30 21.7502C30.2761 21.7502 30.5 21.5264 30.5 21.2502C30.5 20.9741 30.2761 20.7502 30 20.7502V21.7502ZM20 24.5002C19.7239 24.5002 19.5 24.7241 19.5 25.0002C19.5 25.2764 19.7239 25.5002 20 25.5002V24.5002ZM27.5 25.5002C27.7761 25.5002 28 25.2764 28 25.0002C28 24.7241 27.7761 24.5002 27.5 24.5002V25.5002ZM20 21.7502H30V20.7502H20V21.7502ZM20 25.5002H27.5V24.5002H20V25.5002Z" fill="#010201"/>
</svg>
