<svg width="30" height="30" viewBox="0 0 30 30" fill="none" xmlns="http://www.w3.org/2000/svg">
<path fill-rule="evenodd" clip-rule="evenodd" d="M22 6.2502H8C7.54282 6.24319 7.10158 6.4181 6.77338 6.73646C6.44518 7.05481 6.25691 7.49052 6.25 7.9477V18.1252C6.25691 18.5824 6.44518 19.0181 6.77338 19.3364C7.10158 19.6548 7.54282 19.8297 8 19.8227H12.8375C13.1101 19.8213 13.3794 19.882 13.625 20.0002L20.6888 23.7502L20.625 18.1252H22.4125C23.1382 18.1364 23.7363 17.5584 23.75 16.8327V7.9477C23.7431 7.49052 23.5548 7.05481 23.2266 6.73646C22.8984 6.4181 22.4572 6.24319 22 6.2502Z" stroke="#010201" stroke-linecap="round" stroke-linejoin="round"/>
<path d="M10 10.7502C9.72386 10.7502 9.5 10.9741 9.5 11.2502C9.5 11.5264 9.72386 11.7502 10 11.7502V10.7502ZM20 11.7502C20.2761 11.7502 20.5 11.5264 20.5 11.2502C20.5 10.9741 20.2761 10.7502 20 10.7502V11.7502ZM10 14.5002C9.72386 14.5002 9.5 14.7241 9.5 15.0002C9.5 15.2764 9.72386 15.5002 10 15.5002V14.5002ZM17.5 15.5002C17.7761 15.5002 18 15.2764 18 15.0002C18 14.7241 17.7761 14.5002 17.5 14.5002V15.5002ZM10 11.7502H20V10.7502H10V11.7502ZM10 15.5002H17.5V14.5002H10V15.5002Z" fill="#010201"/>
</svg>
