<svg width="50" height="50" viewBox="0 0 50 50" fill="none" xmlns="http://www.w3.org/2000/svg">
<circle cx="25" cy="25" r="25" fill="#FFDD00"/>
<path fill-rule="evenodd" clip-rule="evenodd" d="M16.25 19.6713V30.3288C16.252 30.9068 16.4836 31.4604 16.8939 31.8676C17.3042 32.2749 17.8594 32.5023 18.4375 32.5H31.5625C32.1406 32.5023 32.6958 32.2749 33.1061 31.8676C33.5164 31.4604 33.748 30.9068 33.75 30.3288V19.6713C33.748 19.0932 33.5164 18.5396 33.1061 18.1324C32.6958 17.7252 32.1406 17.4977 31.5625 17.5H18.4375C17.8594 17.4977 17.3042 17.7252 16.8939 18.1324C16.4836 18.5396 16.252 19.0932 16.25 19.6713Z" stroke="#010201" stroke-linecap="round" stroke-linejoin="round"/>
<path d="M33.75 23.1313C34.0261 23.1313 34.25 22.9075 34.25 22.6313C34.25 22.3552 34.0261 22.1313 33.75 22.1313V23.1313ZM16.25 22.1313C15.9739 22.1313 15.75 22.3552 15.75 22.6313C15.75 22.9075 15.9739 23.1313 16.25 23.1313V22.1313ZM26.0938 26.9801C26.3699 26.9801 26.5938 26.7562 26.5938 26.4801C26.5938 26.204 26.3699 25.9801 26.0938 25.9801V26.9801ZM16.25 25.9801C15.9739 25.9801 15.75 26.204 15.75 26.4801C15.75 26.7562 15.9739 26.9801 16.25 26.9801V25.9801ZM30.4688 26.9801C30.7449 26.9801 30.9688 26.7562 30.9688 26.4801C30.9688 26.204 30.7449 25.9801 30.4688 25.9801V26.9801ZM29.375 25.9801C29.0989 25.9801 28.875 26.204 28.875 26.4801C28.875 26.7562 29.0989 26.9801 29.375 26.9801V25.9801ZM33.75 22.1313H16.25V23.1313H33.75V22.1313ZM26.0938 25.9801H16.25V26.9801H26.0938V25.9801ZM30.4688 25.9801H29.375V26.9801H30.4688V25.9801Z" fill="#010201"/>
</svg>
