<svg width="30" height="30" viewBox="0 0 30 30" fill="none" xmlns="http://www.w3.org/2000/svg">
<path fill-rule="evenodd" clip-rule="evenodd" d="M6.25 9.67127V20.3288C6.25199 20.9068 6.48361 21.4604 6.89388 21.8676C7.30416 22.2749 7.85944 22.5023 8.4375 22.5H21.5625C22.1406 22.5023 22.6958 22.2749 23.1061 21.8676C23.5164 21.4604 23.748 20.9068 23.75 20.3288V9.67127C23.748 9.09321 23.5164 8.53963 23.1061 8.13241C22.6958 7.72518 22.1406 7.49769 21.5625 7.50002H8.4375C7.85944 7.49769 7.30416 7.72518 6.89388 8.13241C6.48361 8.53963 6.25199 9.09321 6.25 9.67127Z" stroke="#010201" stroke-linecap="round" stroke-linejoin="round"/>
<path d="M23.75 13.1312C24.0261 13.1312 24.25 12.9074 24.25 12.6312C24.25 12.3551 24.0261 12.1312 23.75 12.1312V13.1312ZM6.25 12.1312C5.97386 12.1312 5.75 12.3551 5.75 12.6312C5.75 12.9074 5.97386 13.1312 6.25 13.1312V12.1312ZM16.0938 16.98C16.3699 16.98 16.5938 16.7561 16.5938 16.48C16.5938 16.2038 16.3699 15.98 16.0938 15.98V16.98ZM6.25 15.98C5.97386 15.98 5.75 16.2038 5.75 16.48C5.75 16.7561 5.97386 16.98 6.25 16.98V15.98ZM20.4688 16.98C20.7449 16.98 20.9688 16.7561 20.9688 16.48C20.9688 16.2038 20.7449 15.98 20.4688 15.98V16.98ZM19.375 15.98C19.0989 15.98 18.875 16.2038 18.875 16.48C18.875 16.7561 19.0989 16.98 19.375 16.98V15.98ZM23.75 12.1312H6.25V13.1312H23.75V12.1312ZM16.0938 15.98H6.25V16.98H16.0938V15.98ZM20.4688 15.98H19.375V16.98H20.4688V15.98Z" fill="#010201"/>
</svg>
